<svg xmlns="http://www.w3.org/2000/svg" viewBox="0 0 100 100" width="100" height="100" preserveAspectRatio="xMidYMid meet" style="width: 100%; height: 100%; transform: translate3d(0px, 0px, 0px); content-visibility: visible;"><defs><clipPath id="__lottie_element_40"><rect width="100" height="100" x="0" y="0"></rect></clipPath></defs><g clip-path="url(#__lottie_element_40)"><g transform="matrix(1,0,0,1,0,0)" opacity="1" style="display: block;"><g opacity="1" transform="matrix(1,0,0,1,0,0)"><g opacity="1" transform="matrix(1,0,0,1,49.808998107910156,65.125)"><path stroke-linecap="butt" stroke-linejoin="miter" fill-opacity="0" stroke-miterlimit="10" stroke="rgb(73,1,57)" stroke-opacity="1" stroke-width="3" d=" M0.10599999874830246,29.090999603271484 C-0.15000000596046448,23.489999771118164 0.03999999910593033,-10.741000175476074 0.1850000023841858,-29.32699966430664"></path></g><g opacity="1" transform="matrix(1,0,0,1,0,0)"><path stroke-linecap="butt" stroke-linejoin="miter" fill-opacity="0" stroke-miterlimit="10" stroke="rgb(73,1,57)" stroke-opacity="1" stroke-width="3" d=" M20.797000885009766,5 C27.375999450683594,5 72.62300109863281,5 79.2020034790039,5"></path></g><g opacity="1" transform="matrix(1,0,0,1,87.4990005493164,20)"><path stroke-linecap="butt" stroke-linejoin="miter" fill-opacity="0" stroke-miterlimit="10" stroke="rgb(73,1,57)" stroke-opacity="1" stroke-width="3" d=" M-7.301000118255615,-14.60099983215332 C-5.656000137329102,-11.312000274658203 5.656000137329102,11.312000274658203 7.301000118255615,14.60099983215332"></path></g><g opacity="1" transform="matrix(1,0,0,1,72.4990005493164,64.9990005493164)"><path stroke-linecap="butt" stroke-linejoin="miter" fill-opacity="0" stroke-miterlimit="10" stroke="rgb(73,1,57)" stroke-opacity="1" stroke-width="3" d=" M21.902000427246094,-29.202999114990234 C16.968000411987305,-22.624000549316406 -16.968000411987305,22.62299919128418 -21.902000427246094,29.20199966430664"></path></g><g opacity="1" transform="matrix(1,0,0,1,0,0)"><path stroke-linecap="butt" stroke-linejoin="miter" fill-opacity="0" stroke-miterlimit="10" stroke="rgb(73,1,57)" stroke-opacity="1" stroke-width="3" d=" M6.196000099182129,35 C16.06399917602539,35 83.93499755859375,35 93.8030014038086,35"></path></g><g opacity="1" transform="matrix(1,0,0,1,65,20)"><path stroke-linecap="butt" stroke-linejoin="miter" fill-opacity="0" stroke-miterlimit="10" stroke="rgb(73,1,57)" stroke-opacity="1" stroke-width="3" d=" M-14.60099983215332,14.60099983215332 C-11.312000274658203,11.312000274658203 11.312000274658203,-11.312000274658203 14.60099983215332,-14.60099983215332"></path></g><g opacity="1" transform="matrix(1,0,0,1,35,20)"><path stroke-linecap="butt" stroke-linejoin="miter" fill-opacity="0" stroke-miterlimit="10" stroke="rgb(73,1,57)" stroke-opacity="1" stroke-width="3" d=" M14.60099983215332,14.60099983215332 C11.312000274658203,11.312000274658203 -11.312000274658203,-11.312000274658203 -14.60099983215332,-14.60099983215332"></path></g><g opacity="1" transform="matrix(1,0,0,1,12.5,20)"><path stroke-linecap="butt" stroke-linejoin="miter" fill-opacity="0" stroke-miterlimit="10" stroke="rgb(73,1,57)" stroke-opacity="1" stroke-width="3" d=" M-7.301000118255615,14.60099983215332 C-5.656000137329102,11.312000274658203 5.656000137329102,-11.312000274658203 7.301000118255615,-14.60099983215332"></path></g><g opacity="1" transform="matrix(1,0,0,1,27.5,65)"><path stroke-linecap="butt" stroke-linejoin="miter" fill-opacity="0" stroke-miterlimit="10" stroke="rgb(73,1,57)" stroke-opacity="1" stroke-width="3" d=" M21.902000427246094,29.20199966430664 C16.968000411987305,22.62299919128418 -16.968000411987305,-22.62299919128418 -21.902000427246094,-29.20199966430664"></path></g></g><g opacity="1" transform="matrix(1,0,0,1,0,0)"><g opacity="1" transform="matrix(1,0,0,1,20,5)"><path fill="rgb(249,231,225)" fill-opacity="1" d=" M-5,5 C-5,5 5,5 5,5 C5,5 5,-5 5,-5 C5,-5 -5,-5 -5,-5 C-5,-5 -5,5 -5,5z"></path></g><g opacity="1" transform="matrix(1,0,0,1,79.9990005493164,5)"><path fill="rgb(249,231,225)" fill-opacity="1" d=" M-5,5 C-5,5 5,5 5,5 C5,5 5,-5 5,-5 C5,-5 -5,-5 -5,-5 C-5,-5 -5,5 -5,5z"></path></g><g opacity="1" transform="matrix(1,0,0,1,50,34.99700164794922)"><path fill="rgb(249,231,225)" fill-opacity="1" d=" M-5,-5 C-5,-5 5,-5 5,-5 C5,-5 5,5 5,5 C5,5 -5,5 -5,5 C-5,5 -5,-5 -5,-5z"></path></g><g opacity="1" transform="matrix(1,0,0,1,94.9990005493164,34.99700164794922)"><path fill="rgb(249,231,225)" fill-opacity="1" d=" M-5,5 C-5,5 5,5 5,5 C5,5 5,-5 5,-5 C5,-5 -5,-5 -5,-5 C-5,-5 -5,5 -5,5z"></path></g><g opacity="1" transform="matrix(1,0,0,1,5,34.99700164794922)"><path fill="rgb(249,231,225)" fill-opacity="1" d=" M-5,5 C-5,5 5,5 5,5 C5,5 5,-5 5,-5 C5,-5 -5,-5 -5,-5 C-5,-5 -5,5 -5,5z"></path></g><g opacity="1" transform="matrix(1,0,0,1,50,94.9990005493164)"><path fill="rgb(249,231,225)" fill-opacity="1" d=" M-5,5 C-5,5 5,5 5,5 C5,5 5,-5 5,-5 C5,-5 -5,-5 -5,-5 C-5,-5 -5,5 -5,5z"></path></g></g></g></g></svg>