<svg xmlns="http://www.w3.org/2000/svg" viewBox="0 0 100 100" width="100" height="100" preserveAspectRatio="xMidYMid meet" style="width: 100%; height: 100%; transform: translate3d(0px, 0px, 0px); content-visibility: visible;"><defs><clipPath id="__lottie_element_45"><rect width="100" height="100" x="0" y="0"></rect></clipPath></defs><g clip-path="url(#__lottie_element_45)"><g transform="matrix(1,0,0,1,0,0)" opacity="1" style="display: block;"><g opacity="1" transform="matrix(1,0,0,1,50,57.50199890136719)"><path stroke-linecap="butt" stroke-linejoin="miter" fill-opacity="0" stroke-miterlimit="10" stroke="rgb(73,1,57)" stroke-opacity="1" stroke-width="3" d=" M-15,-7.5 C-15,-7.5 15,-7.5 15,-7.5 C15,-7.5 15,7.5 15,7.5 C15,7.5 -15,7.5 -15,7.5 C-15,7.5 -15,-7.5 -15,-7.5z"></path></g><g opacity="1" transform="matrix(1,0,0,1,0,0)"><path stroke-linecap="butt" stroke-linejoin="miter" fill-opacity="0" stroke-miterlimit="10" stroke="rgb(73,1,57)" stroke-opacity="1" stroke-width="3" d=" M50,65.00199890136719 C50,65.00199890136719 50,80.00199890136719 50,80.00199890136719"></path></g><g opacity="1" transform="matrix(1,0,0,1,0,0)"><g opacity="1" transform="matrix(1,0,0,1,50,20.003000259399414)"><path stroke-linecap="butt" stroke-linejoin="miter" fill-opacity="0" stroke-miterlimit="10" stroke="rgb(73,1,57)" stroke-opacity="1" stroke-width="3" d=" M-15,13.973999977111816 C-15,10.590999603271484 -15,0 -15,0 C-15,-8.284000396728516 -8.284000396728516,-15 0,-15 C8.284000396728516,-15 15,-8.284000396728516 15,0 C15,0 15,10.590999603271484 15,13.973999977111816"></path></g><g opacity="1" transform="matrix(1,0,0,1,0,0)"><path stroke-linecap="butt" stroke-linejoin="miter" fill-opacity="0" stroke-miterlimit="10" stroke="rgb(73,1,57)" stroke-opacity="1" stroke-width="3" d=" M94.9990005493164,35.797000885009766 C94.9990005493164,42.375999450683594 94.9990005493164,87.62300109863281 94.9990005493164,94.2020034790039"></path></g><g opacity="1" transform="matrix(1,0,0,1,0,0)"><path stroke-linecap="butt" stroke-linejoin="miter" fill-opacity="0" stroke-miterlimit="10" stroke="rgb(73,1,57)" stroke-opacity="1" stroke-width="3" d=" M6.196000099182129,35 C16.06399917602539,35 83.93499755859375,35 93.8030014038086,35"></path></g><g opacity="1" transform="matrix(1,0,0,1,0,0)"><path stroke-linecap="butt" stroke-linejoin="miter" fill-opacity="0" stroke-miterlimit="10" stroke="rgb(73,1,57)" stroke-opacity="1" stroke-width="3" d=" M93.8030014038086,94.9990005493164 C83.93499755859375,94.9990005493164 16.06399917602539,94.9990005493164 6.196000099182129,94.9990005493164"></path></g><g opacity="1" transform="matrix(1,0,0,1,0,0)"><path stroke-linecap="butt" stroke-linejoin="miter" fill-opacity="0" stroke-miterlimit="10" stroke="rgb(73,1,57)" stroke-opacity="1" stroke-width="3" d=" M5,94.2020034790039 C5,87.62300109863281 5,42.375999450683594 5,35.797000885009766"></path></g></g><g opacity="1" transform="matrix(1,0,0,1,0,0)"><g opacity="1" transform="matrix(1,0,0,1,5,35.00600051879883)"><path fill="rgb(249,231,225)" fill-opacity="1" d=" M-5,5 C-5,5 5,5 5,5 C5,5 5,-5 5,-5 C5,-5 -5,-5 -5,-5 C-5,-5 -5,5 -5,5z"></path></g><g opacity="1" transform="matrix(1,0,0,1,94.9990005493164,35.00600051879883)"><path fill="rgb(249,231,225)" fill-opacity="1" d=" M-5,5 C-5,5 5,5 5,5 C5,5 5,-5 5,-5 C5,-5 -5,-5 -5,-5 C-5,-5 -5,5 -5,5z"></path></g><g opacity="1" transform="matrix(1,0,0,1,5,94.9990005493164)"><path fill="rgb(249,231,225)" fill-opacity="1" d=" M-5,5 C-5,5 5,5 5,5 C5,5 5,-5 5,-5 C5,-5 -5,-5 -5,-5 C-5,-5 -5,5 -5,5z"></path></g><g opacity="1" transform="matrix(1,0,0,1,94.9990005493164,94.9990005493164)"><path fill="rgb(249,231,225)" fill-opacity="1" d=" M-5,5 C-5,5 5,5 5,5 C5,5 5,-5 5,-5 C5,-5 -5,-5 -5,-5 C-5,-5 -5,5 -5,5z"></path></g><g opacity="1" transform="matrix(1,0,0,1,35,35.00600051879883)"><path fill="rgb(249,231,225)" fill-opacity="1" d=" M-5,-5 C-5,-5 5,-5 5,-5 C5,-5 5,5 5,5 C5,5 -5,5 -5,5 C-5,5 -5,-5 -5,-5z"></path></g><g opacity="1" transform="matrix(1,0,0,1,65,35.00600051879883)"><path fill="rgb(249,231,225)" fill-opacity="1" d=" M-5,-5 C-5,-5 5,-5 5,-5 C5,-5 5,5 5,5 C5,5 -5,5 -5,5 C-5,5 -5,-5 -5,-5z"></path></g></g></g></g></svg>