<svg xmlns="http://www.w3.org/2000/svg" viewBox="0 0 100 100" width="100" height="100" preserveAspectRatio="xMidYMid meet" style="width: 100%; height: 100%; transform: translate3d(0px, 0px, 0px); content-visibility: visible;"><defs><clipPath id="__lottie_element_55"><rect width="100" height="100" x="0" y="0"></rect></clipPath></defs><g clip-path="url(#__lottie_element_55)"><g transform="matrix(1,0,0,1,-0.00099945068359375,0)" opacity="1" style="display: block;"><g opacity="1" transform="matrix(1,0,0,1,0,0)"><g opacity="1" transform="matrix(1,0,0,1,27.499000549316406,27.499000549316406)"><path stroke-linecap="butt" stroke-linejoin="miter" fill-opacity="0" stroke-miterlimit="10" stroke="rgb(73,1,57)" stroke-opacity="1" stroke-width="3" d=" M-22.489999771118164,21.559999465942383 C-21.996000289916992,-2.546999931335449 -2.546999931335449,-21.996000289916992 21.559999465942383,-22.489999771118164"></path></g><g opacity="1" transform="matrix(1,0,0,1,27.5,72.4990005493164)"><path stroke-linecap="butt" stroke-linejoin="miter" fill-opacity="0" stroke-miterlimit="10" stroke="rgb(73,1,57)" stroke-opacity="1" stroke-width="3" d=" M21.559999465942383,22.489999771118164 C-2.546999931335449,21.996000289916992 -21.996000289916992,2.546999931335449 -22.489999771118164,-21.559999465942383"></path></g><g opacity="1" transform="matrix(1,0,0,1,72.4990005493164,72.4990005493164)"><path stroke-linecap="butt" stroke-linejoin="miter" fill-opacity="0" stroke-miterlimit="10" stroke="rgb(73,1,57)" stroke-opacity="1" stroke-width="3" d=" M22.489999771118164,-21.559999465942383 C21.996000289916992,2.546999931335449 2.546999931335449,21.996000289916992 -21.559999465942383,22.489999771118164"></path></g><g opacity="1" transform="matrix(1,0,0,1,72.4990005493164,27.499000549316406)"><path stroke-linecap="butt" stroke-linejoin="miter" fill-opacity="0" stroke-miterlimit="10" stroke="rgb(73,1,57)" stroke-opacity="1" stroke-width="3" d=" M-21.559999465942383,-22.489999771118164 C2.546999931335449,-21.996000289916992 21.996000289916992,-2.546999931335449 22.489999771118164,21.559999465942383"></path></g></g></g><g transform="matrix(1,0,0,1,-0.00099945068359375,0)" opacity="1" style="display: block;"><g opacity="1" transform="matrix(1,0,0,1,50,5)"><path fill="rgb(249,231,225)" fill-opacity="1" d=" M-5.000999927520752,5 C-5.000999927520752,5 5.000999927520752,5 5.000999927520752,5 C5.000999927520752,5 5.000999927520752,-5 5.000999927520752,-5 C5.000999927520752,-5 -5.000999927520752,-5 -5.000999927520752,-5 C-5.000999927520752,-5 -5.000999927520752,5 -5.000999927520752,5z"></path></g><g opacity="1" transform="matrix(1,0,0,1,50,94.9990005493164)"><path fill="rgb(249,231,225)" fill-opacity="1" d=" M-5.000999927520752,4.999000072479248 C-5.000999927520752,4.999000072479248 5.000999927520752,4.999000072479248 5.000999927520752,4.999000072479248 C5.000999927520752,4.999000072479248 5.000999927520752,-5 5.000999927520752,-5 C5.000999927520752,-5 -5.000999927520752,-5 -5.000999927520752,-5 C-5.000999927520752,-5 -5.000999927520752,4.999000072479248 -5.000999927520752,4.999000072479248z"></path></g><g opacity="1" transform="matrix(1,0,0,1,5,50)"><path fill="rgb(249,231,225)" fill-opacity="1" d=" M-5,5 C-5,5 5,5 5,5 C5,5 5,-5 5,-5 C5,-5 -5,-5 -5,-5 C-5,-5 -5,5 -5,5z"></path></g><g opacity="1" transform="matrix(1,0,0,1,94.9990005493164,50)"><path fill="rgb(249,231,225)" fill-opacity="1" d=" M-5,5 C-5,5 5,5 5,5 C5,5 5,-5 5,-5 C5,-5 -5,-5 -5,-5 C-5,-5 -5,5 -5,5z"></path></g><g opacity="1" transform="matrix(1,0,0,1,49.999000549316406,49.95000076293945)"><path fill="rgb(73,1,57)" fill-opacity="1" d=" M-5,-5 C-5,-5 5,-5 5,-5 C5,-5 5,5 5,5 C5,5 -5,5 -5,5 C-5,5 -5,-5 -5,-5z"></path></g></g></g></svg>