<svg xmlns="http://www.w3.org/2000/svg" viewBox="0 0 100 100" width="100" height="100" preserveAspectRatio="xMidYMid meet" style="width: 100%; height: 100%; transform: translate3d(0px, 0px, 0px); content-visibility: visible;"><defs><clipPath id="__lottie_element_101"><rect width="100" height="100" x="0" y="0"></rect></clipPath></defs><g clip-path="url(#__lottie_element_101)"><g transform="matrix(1,0,0,1,0,0)" opacity="1" style="display: block;"><g opacity="1" transform="matrix(1,0,0,1,0,0)"><g opacity="1" transform="matrix(1,0,0,1,0,0)"><path stroke-linecap="butt" stroke-linejoin="miter" fill-opacity="0" stroke-miterlimit="10" stroke="rgb(255,79,67)" stroke-opacity="1" stroke-width="3" d=" M94.4020004272461,49.999000549316406 C89.0790023803711,49.999000549316406 50,49.999000549316406 50,49.999000549316406 M95,49.999000549316406 C95,49.999000549316406 94.79100036621094,49.999000549316406 94.4020004272461,49.999000549316406"></path></g><g opacity="1" transform="matrix(1,0,0,1,72.5,27.5)"><path stroke-linecap="butt" stroke-linejoin="miter" fill-opacity="0" stroke-miterlimit="10" stroke="rgb(255,79,67)" stroke-opacity="1" stroke-width="3" d=" M21.902000427246094,-21.902000427246094 C16.57900047302246,-16.57900047302246 -22.5,22.5 -22.5,22.5 M22.5,-22.5 C22.5,-22.5 22.291000366210938,-22.291000366210938 21.902000427246094,-21.902000427246094"></path></g><g opacity="1" transform="matrix(1,0,0,1,0,0)"><path stroke-linecap="butt" stroke-linejoin="miter" fill-opacity="0" stroke-miterlimit="10" stroke="rgb(255,79,67)" stroke-opacity="1" stroke-width="3" d=" M50,5.5980000495910645 C50,10.920999526977539 50,49.999000549316406 50,49.999000549316406 M50,5 C50,5 50,5.209000110626221 50,5.5980000495910645"></path></g><g opacity="1" transform="matrix(1,0,0,1,27.5,27.5)"><path stroke-linecap="butt" stroke-linejoin="miter" fill-opacity="0" stroke-miterlimit="10" stroke="rgb(255,79,67)" stroke-opacity="1" stroke-width="3" d=" M-21.902000427246094,-21.902000427246094 C-16.57900047302246,-16.57900047302246 22.5,22.5 22.5,22.5 M-22.5,-22.5 C-22.5,-22.5 -22.291000366210938,-22.291000366210938 -21.902000427246094,-21.902000427246094"></path></g><g opacity="1" transform="matrix(1,0,0,1,0,0)"><path stroke-linecap="butt" stroke-linejoin="miter" fill-opacity="0" stroke-miterlimit="10" stroke="rgb(255,79,67)" stroke-opacity="1" stroke-width="3" d=" M5.5980000495910645,49.999000549316406 C10.920999526977539,49.999000549316406 50,49.999000549316406 50,49.999000549316406 M5,49.999000549316406 C5,49.999000549316406 5.209000110626221,49.999000549316406 5.5980000495910645,49.999000549316406"></path></g><g opacity="1" transform="matrix(1,0,0,1,27.5,72.4990005493164)"><path stroke-linecap="butt" stroke-linejoin="miter" fill-opacity="0" stroke-miterlimit="10" stroke="rgb(255,79,67)" stroke-opacity="1" stroke-width="3" d=" M-21.902000427246094,21.902000427246094 C-16.57900047302246,16.57900047302246 22.5,-22.5 22.5,-22.5 M-22.5,22.5 C-22.5,22.5 -22.291000366210938,22.291000366210938 -21.902000427246094,21.902000427246094"></path></g><g opacity="1" transform="matrix(1,0,0,1,0,0)"><path stroke-linecap="butt" stroke-linejoin="miter" fill-opacity="0" stroke-miterlimit="10" stroke="rgb(255,79,67)" stroke-opacity="1" stroke-width="3" d=" M50,94.4010009765625 C50,89.0780029296875 50,49.999000549316406 50,49.999000549316406 M50,94.9990005493164 C50,94.9990005493164 50,94.79000091552734 50,94.4010009765625"></path></g><g opacity="1" transform="matrix(1,0,0,1,72.5,72.4990005493164)"><path stroke-linecap="butt" stroke-linejoin="miter" fill-opacity="0" stroke-miterlimit="10" stroke="rgb(255,79,67)" stroke-opacity="1" stroke-width="3" d=" M21.902000427246094,21.902000427246094 C16.57900047302246,16.57900047302246 -22.5,-22.5 -22.5,-22.5 M22.5,22.5 C22.5,22.5 22.291000366210938,22.291000366210938 21.902000427246094,21.902000427246094"></path></g></g><g opacity="1" transform="matrix(1,0,0,1,0,0)"><g opacity="1" transform="matrix(1,0,0,1,5,5.000999927520752)"><path fill="rgb(249,231,225)" fill-opacity="1" d=" M-5,5 C-5,5 5,5 5,5 C5,5 5,-5 5,-5 C5,-5 -5,-5 -5,-5 C-5,-5 -5,5 -5,5z"></path></g><g opacity="1" transform="matrix(1,0,0,1,50,5)"><path fill="rgb(249,231,225)" fill-opacity="1" d=" M-5,5 C-5,5 5,5 5,5 C5,5 5,-5 5,-5 C5,-5 -5,-5 -5,-5 C-5,-5 -5,5 -5,5z"></path></g><g opacity="1" transform="matrix(1,0,0,1,50,94.9990005493164)"><path fill="rgb(249,231,225)" fill-opacity="1" d=" M-5,5 C-5,5 5,5 5,5 C5,5 5,-5 5,-5 C5,-5 -5,-5 -5,-5 C-5,-5 -5,5 -5,5z"></path></g><g opacity="1" transform="matrix(1,0,0,1,94.9990005493164,49.95000076293945)"><path fill="rgb(249,231,225)" fill-opacity="1" d=" M-5,5 C-5,5 5,5 5,5 C5,5 5,-5 5,-5 C5,-5 -5,-5 -5,-5 C-5,-5 -5,5 -5,5z"></path></g><g opacity="1" transform="matrix(1,0,0,1,5,49.95000076293945)"><path fill="rgb(249,231,225)" fill-opacity="1" d=" M-5,5 C-5,5 5,5 5,5 C5,5 5,-5 5,-5 C5,-5 -5,-5 -5,-5 C-5,-5 -5,5 -5,5z"></path></g><g opacity="1" transform="matrix(1,0,0,1,94.9990005493164,94.9990005493164)"><path fill="rgb(249,231,225)" fill-opacity="1" d=" M-5,5 C-5,5 5,5 5,5 C5,5 5,-5 5,-5 C5,-5 -5,-5 -5,-5 C-5,-5 -5,5 -5,5z"></path></g><g opacity="1" transform="matrix(1,0,0,1,5,94.9990005493164)"><path fill="rgb(249,231,225)" fill-opacity="1" d=" M-5,5 C-5,5 5,5 5,5 C5,5 5,-5 5,-5 C5,-5 -5,-5 -5,-5 C-5,-5 -5,5 -5,5z"></path></g><g opacity="1" transform="matrix(1,0,0,1,94.9990005493164,5)"><path fill="rgb(249,231,225)" fill-opacity="1" d=" M-5,5 C-5,5 5,5 5,5 C5,5 5,-5 5,-5 C5,-5 -5,-5 -5,-5 C-5,-5 -5,5 -5,5z"></path></g><g opacity="1" transform="matrix(1,0,0,1,50,49.95100021362305)"><path fill="rgb(249,231,225)" fill-opacity="1" d=" M-5,-5 C-5,-5 5,-5 5,-5 C5,-5 5,5 5,5 C5,5 -5,5 -5,5 C-5,5 -5,-5 -5,-5z"></path></g></g></g></g></svg>