<svg xmlns="http://www.w3.org/2000/svg" viewBox="0 0 100 100" width="100" height="100" preserveAspectRatio="xMidYMid meet" style="width: 100%; height: 100%; transform: translate3d(0px, 0px, 0px); content-visibility: visible;"><defs><clipPath id="__lottie_element_106"><rect width="100" height="100" x="0" y="0"></rect></clipPath></defs><g clip-path="url(#__lottie_element_106)"><g transform="matrix(1,0,0,1,0,0)" opacity="1" style="display: block;"><g opacity="1" transform="matrix(1,0,0,1,0,0)"><g opacity="1" transform="matrix(1,0,0,1,0,0)"><path stroke-linecap="butt" stroke-linejoin="miter" fill-opacity="0" stroke-miterlimit="10" stroke="rgb(255,79,67)" stroke-opacity="1" stroke-width="3" d=" M35,35 C35,35 35,94.9990005493164 35,94.9990005493164 M65,20 C65,20 65,94.9990005493164 65,94.9990005493164"></path></g><g opacity="1" transform="matrix(1,0,0,1,50,27.5)"><path stroke-linecap="butt" stroke-linejoin="miter" fill-opacity="0" stroke-miterlimit="10" stroke="rgb(255,79,67)" stroke-opacity="1" stroke-width="3" d=" M-43.55400085449219,22.5 C-39.79499816894531,22.5 -29.999000549316406,22.5 -29.999000549316406,22.5 C-29.999000549316406,22.5 -14.99899959564209,7.5 -14.99899959564209,7.5 C-14.99899959564209,7.5 0.0010000000474974513,7.5 0.0010000000474974513,7.5 C0.0010000000474974513,7.5 15,-7.5 15,-7.5 C15,-7.5 29.999000549316406,-7.5 29.999000549316406,-7.5 C29.999000549316406,-7.5 40.5989990234375,-18.100000381469727 43.97800064086914,-21.479000091552734"></path></g><g opacity="1" transform="matrix(1,0,0,1,0,0)"><path stroke-linecap="butt" stroke-linejoin="miter" fill-opacity="0" stroke-miterlimit="10" stroke="rgb(255,79,67)" stroke-opacity="1" stroke-width="3" d=" M94.9990005493164,6.196000099182129 C94.9990005493164,16.06399917602539 94.9990005493164,83.93499755859375 94.9990005493164,93.8030014038086"></path></g><g opacity="1" transform="matrix(1,0,0,1,0,0)"><path stroke-linecap="butt" stroke-linejoin="miter" fill-opacity="0" stroke-miterlimit="10" stroke="rgb(255,79,67)" stroke-opacity="1" stroke-width="3" d=" M93.8030014038086,94.9990005493164 C83.93499755859375,94.9990005493164 16.06399917602539,94.9990005493164 6.196000099182129,94.9990005493164"></path></g><g opacity="1" transform="matrix(1,0,0,1,0,0)"><path stroke-linecap="butt" stroke-linejoin="miter" fill-opacity="0" stroke-miterlimit="10" stroke="rgb(255,79,67)" stroke-opacity="1" stroke-width="3" d=" M5,94.4010009765625 C5,89.46700286865234 5,55.53099822998047 5,50.59700012207031"></path></g></g><g opacity="1" transform="matrix(1,0,0,1,0,0)"><g opacity="1" transform="matrix(1,0,0,1,5,50)"><path fill="rgb(249,231,225)" fill-opacity="1" d=" M-5,5 C-5,5 5,5 5,5 C5,5 5,-5 5,-5 C5,-5 -5,-5 -5,-5 C-5,-5 -5,5 -5,5z"></path></g><g opacity="1" transform="matrix(1,0,0,1,94.9990005493164,5)"><path fill="rgb(249,231,225)" fill-opacity="1" d=" M-5,5 C-5,5 5,5 5,5 C5,5 5,-5 5,-5 C5,-5 -5,-5 -5,-5 C-5,-5 -5,5 -5,5z"></path></g><g opacity="1" transform="matrix(1,0,0,1,64.9990005493164,20)"><path fill="rgb(249,231,225)" fill-opacity="1" d=" M-5,-5 C-5,-5 5,-5 5,-5 C5,-5 5,5 5,5 C5,5 -5,5 -5,5 C-5,5 -5,-5 -5,-5z"></path></g><g opacity="1" transform="matrix(1,0,0,1,35,34.99700164794922)"><path fill="rgb(249,231,225)" fill-opacity="1" d=" M-5,-5 C-5,-5 5,-5 5,-5 C5,-5 5,5 5,5 C5,5 -5,5 -5,5 C-5,5 -5,-5 -5,-5z"></path></g><g opacity="1" transform="matrix(1,0,0,1,5,94.9990005493164)"><path fill="rgb(249,231,225)" fill-opacity="1" d=" M-5,5 C-5,5 5,5 5,5 C5,5 5,-5 5,-5 C5,-5 -5,-5 -5,-5 C-5,-5 -5,5 -5,5z"></path></g><g opacity="1" transform="matrix(1,0,0,1,94.9990005493164,94.9990005493164)"><path fill="rgb(249,231,225)" fill-opacity="1" d=" M-5,5 C-5,5 5,5 5,5 C5,5 5,-5 5,-5 C5,-5 -5,-5 -5,-5 C-5,-5 -5,5 -5,5z"></path></g></g></g></g></svg>