<svg xmlns="http://www.w3.org/2000/svg" viewBox="0 0 100 100" width="100" height="100" preserveAspectRatio="xMidYMid meet" style="width: 100%; height: 100%; transform: translate3d(0px, 0px, 0px); content-visibility: visible;"><defs><clipPath id="__lottie_element_111"><rect width="100" height="100" x="0" y="0"></rect></clipPath></defs><g clip-path="url(#__lottie_element_111)"><g transform="matrix(1,0,0,1,0,0)" opacity="1" style="display: block;"><g opacity="1" transform="matrix(1,0,0,1,50,47.49700164794922)"><path stroke-linecap="butt" stroke-linejoin="miter" fill-opacity="0" stroke-miterlimit="10" stroke="rgb(255,79,67)" stroke-opacity="1" stroke-width="3" d=" M25,-17.5 C25,-17.5 -10,17.5 -10,17.5 C-10,17.5 -25,2.5 -25,2.5"></path></g><g opacity="1" transform="matrix(1,0,0,1,0,0)"><g opacity="1" transform="matrix(1,0,0,1,0,0)"><path stroke-linecap="butt" stroke-linejoin="miter" fill-opacity="0" stroke-miterlimit="10" stroke="rgb(255,79,67)" stroke-opacity="1" stroke-width="3" d=" M94.9990005493164,6.196000099182129 C94.9990005493164,5.418000221252441 94.9990005493164,5 94.9990005493164,5 M94.9990005493164,94.9990005493164 C94.9990005493164,94.9990005493164 94.9990005493164,28.430999755859375 94.9990005493164,9.795999526977539"></path></g><g opacity="1" transform="matrix(1,0,0,1,0,0)"><path stroke-linecap="butt" stroke-linejoin="miter" fill-opacity="0" stroke-miterlimit="10" stroke="rgb(255,79,67)" stroke-opacity="1" stroke-width="3" d=" M6.196000099182129,5 C5.418000221252441,5 5,5 5,5 M94.9990005493164,5 C94.9990005493164,5 28.430999755859375,5 9.795999526977539,5"></path></g><g opacity="1" transform="matrix(1,0,0,1,0,0)"><path stroke-linecap="butt" stroke-linejoin="miter" fill-opacity="0" stroke-miterlimit="10" stroke="rgb(255,79,67)" stroke-opacity="1" stroke-width="3" d=" M5,93.8030014038086 C5,94.58100128173828 5,94.9990005493164 5,94.9990005493164 M5,5 C5,5 5,71.56800079345703 5,90.2030029296875"></path></g><g opacity="1" transform="matrix(1,0,0,1,0,0)"><path stroke-linecap="butt" stroke-linejoin="miter" fill-opacity="0" stroke-miterlimit="10" stroke="rgb(255,79,67)" stroke-opacity="1" stroke-width="3" d=" M93.8030014038086,94.9990005493164 C94.58100128173828,94.9990005493164 94.9990005493164,94.9990005493164 94.9990005493164,94.9990005493164 M5,94.9990005493164 C5,94.9990005493164 71.56800079345703,94.9990005493164 90.2030029296875,94.9990005493164"></path></g></g><g opacity="1" transform="matrix(1,0,0,1,0,0)"><g opacity="1" transform="matrix(1,0,0,1,5,5.000999927520752)"><path fill="rgb(249,231,225)" fill-opacity="1" d=" M-5,5 C-5,5 5,5 5,5 C5,5 5,-5 5,-5 C5,-5 -5,-5 -5,-5 C-5,-5 -5,5 -5,5z"></path></g><g opacity="1" transform="matrix(1,0,0,1,5,94.9990005493164)"><path fill="rgb(249,231,225)" fill-opacity="1" d=" M-5,5 C-5,5 5,5 5,5 C5,5 5,-5 5,-5 C5,-5 -5,-5 -5,-5 C-5,-5 -5,5 -5,5z"></path></g><g opacity="1" transform="matrix(1,0,0,1,94.9990005493164,94.9990005493164)"><path fill="rgb(249,231,225)" fill-opacity="1" d=" M-5,5 C-5,5 5,5 5,5 C5,5 5,-5 5,-5 C5,-5 -5,-5 -5,-5 C-5,-5 -5,5 -5,5z"></path></g><g opacity="1" transform="matrix(1,0,0,1,94.9990005493164,5)"><path fill="rgb(249,231,225)" fill-opacity="1" d=" M-5,5 C-5,5 5,5 5,5 C5,5 5,-5 5,-5 C5,-5 -5,-5 -5,-5 C-5,-5 -5,5 -5,5z"></path></g></g></g></g></svg>